{"title":"Oblivion  2013 CAM NO WATERMARKS XviD READNFO-THC","uid":8372237,"size":1340822985,"categoryP":"video","categoryS":"movies","magnet":"?xt=urn:btih:2e7a183afab60f69daa4c2279b0d3e2c714c652b&amp;dn=Oblivion++2013+CAM+NO+WATERMARKS+XviD+READNFO-THC&amp;tr=udp%3A%2F%2Ftracker.openbittorrent.com%3A80&amp;tr=udp%3A%2F%2Fopen.demonii.com%3A1337&amp;tr=udp%3A%2F%2Ftracker.coppersurfer.tk%3A6969&amp;tr=udp%3A%2F%2Fexodus.desync.com%3A6969","seeders":1,"leechers":0,"uploader":"Gh0stNet","files":4,"time":1365952066,"description":"\tSource: FOX...THANKS (Please no watermarks next time)\n &lt;a href=&quot;\nhttp://www.imdb.com/title/tt1483013/&quot; rel=&quot;nofollow&quot; target=&quot;_NEW&quot;&gt;\nhttp://www.imdb.com/title/tt1483013/&lt;/a&gt;\n\nFormat                           : AVI\nFormat/Info                      : Audio Video Interleave\nFile size                        : 1.24 GiB\nDuration                         : 1h 56mn\nOverall bit rate                 : 1 526 Kbps\nWriting application              : VirtualDubMod 1.5.10.2 (build 2540/release)\nWriting library                  : VirtualDub build 35390/release\n\nVideo\nID                               : 0\nFormat                           : MPEG-4 Visual\nFormat profile                   : Advanced Simple@L5\nFormat settings, BVOP            : Yes\nFormat settings, QPel            : No\nFormat settings, GMC             : No warppoints\nFormat settings, Matrix          : Default (H.263)\nMuxing mode                      : Packed bitstream\nCodec ID                         : XVID\nCodec ID/Hint                    : XviD\nDuration                         : 1h 56mn\nBit rate                         : 1 389 Kbps\nWidth                            : 720 pixels\nHeight                           : 290 pixels\nDisplay aspect ratio             : 2.483\nFrame rate                       : 25.000 fps\nColor space                      : YUV\nChroma subsampling               : 4:2:0\nBit depth                        : 8 bits\nScan type                        : Progressive\nBits/(Pixel*Frame)               : 0.266\nStream size                      : 1.13 GiB (91%)\nWriting library                  : XviD 1.2.1 (UTC 2008-12-04)\n\nAudio\nID                               : 1\nFormat                           : MPEG Audio\nFormat version                   : Version 1\nFormat profile                   : Layer 3\nMode                             : Joint stereo\nMode extension                   : MS Stereo\nCodec ID                         : 55\nCodec ID/Hint                    : MP3\nDuration                         : 1h 56mn\nBit rate mode                    : Constant\nBit rate                         : 128 Kbps\nChannel(s)                       : 2 channels\nSampling rate                    : 48.0 KHz\nStream size                      : 107 MiB (8%)\nAlignment                        : Split accross interleaves\nInterleave, duration             : 40 ms (1.00 video frame)\nInterleave, preload duration     : 500 ms\n\nWorkdone:\nWell save best for last since we are the only group so far able to remove the watermarks complete threw the whole video. Cheers to everyone who tried. Well first off we had to resize the video's so we can combine them. After that we broke the video up in 23 pieces and the watermarks appear 11 times threw the video. The ones on the sides where no problem, it was the one that moves across the screen and grows was the big challenge. The one that moves across the screen we had to cut up frame by frame till it starts growing. This was not easy and probably shouldnt of even bother but we where to far along to stop. After all watermarks where remove we adjusted all the cuts for light and dark scenes the best we could. Around 59min threw the video there a CAM drop or some lost of video and you here the CAM move around and we choose to remove that and now you cant even tell it happen. Oh we also remove the CAM movement in the beginning as well. We did all kinds of filters which we wont bore you with, So we hope you all enjoy this release till a better one comes out in a week or two.\n\nCAM AUDIO:\nDenoiser and adjusted equalizer ","torrent":{"xt":"urn:btih:2e7a183afab60f69daa4c2279b0d3e2c714c652b","amp;dn":"Oblivion++2013+CAM+NO+WATERMARKS+XviD+READNFO-THC","amp;tr":["udp%3A%2F%2Ftracker.openbittorrent.com%3A80","udp%3A%2F%2Fopen.demonii.com%3A1337","udp%3A%2F%2Ftracker.coppersurfer.tk%3A6969","udp%3A%2F%2Fexodus.desync.com%3A6969"],"infoHash":"2e7a183afab60f69daa4c2279b0d3e2c714c652b","infoHashBuffer":{"type":"Buffer","data":[46,122,24,58,250,182,15,105,218,164,194,39,155,13,62,44,113,76,101,43]},"announce":[],"urlList":[]}}